HIERARCHY
ROOT root
{
  OFFSET 0.000000 0.000000 0.000000
  CHANNELS 6 Xposition Yposition Zposition Zrotation Yrotation Xrotation
  JOINT lhipjoint
  {
    OFFSET 0.000000 0.000000 0.000000
    CHANNELS 3 Zrotation Yrotation Xrotation
    JOINT lfemur
    {
      OFFSET 0.102897 -0.089377 0.049154
      CHANNELS 3 Zrotation Yrotation Xrotation
      JOINT ltibia
      {
        OFFSET 0.137606 -0.378070 0.000000
        CHANNELS 3 Zrotation Yrotation Xrotation
        JOINT lfoot
        {
          OFFSET 0.146354 -0.402104 0.000000
          CHANNELS 3 Zrotation Yrotation Xrotation
          JOINT ltoes
          {
            OFFSET 0.008214 -0.022567 0.120317
            CHANNELS 3 Zrotation Yrotation Xrotation
            End Site
            {
              OFFSET 0.000000 -0.000000 0.061765
            }
          }
        }
      }
    }
  }
  JOINT rhipjoint
  {
    OFFSET 0.000000 0.000000 0.000000
    CHANNELS 3 Zrotation Yrotation Xrotation
    JOINT rfemur
    {
      OFFSET -0.100036 -0.089377 0.049154
      CHANNELS 3 Zrotation Yrotation Xrotation
      JOINT rtibia
      {
        OFFSET -0.141508 -0.388790 0.000000
        CHANNELS 3 Zrotation Yrotation Xrotation
        JOINT rfoot
        {
          OFFSET -0.147670 -0.405720 0.000000
          CHANNELS 3 Zrotation Yrotation Xrotation
          JOINT rtoes
          {
            OFFSET -0.008574 -0.023557 0.121905
            CHANNELS 3 Zrotation Yrotation Xrotation
            End Site
            {
              OFFSET -0.000000 -0.000000 0.062608
            }
          }
        }
      }
    }
  }
  JOINT lowerback
  {
    OFFSET 0.000000 0.000000 0.000000
    CHANNELS 3 Zrotation Yrotation Xrotation
    JOINT upperback
    {
      OFFSET -0.002033 0.119901 -0.017074
      CHANNELS 3 Zrotation Yrotation Xrotation
      JOINT thorax
      {
        OFFSET 0.001534 0.118558 0.007288
        CHANNELS 3 Zrotation Yrotation Xrotation
        JOINT lowerneck
        {
          OFFSET 0.002175 0.121761 0.016192
          CHANNELS 3 Zrotation Yrotation Xrotation
          JOINT upperneck
          {
            OFFSET -0.003596 0.106486 0.006549
            CHANNELS 3 Zrotation Yrotation Xrotation
            JOINT head
            {
              OFFSET 0.004633 0.105979 -0.006494
              CHANNELS 3 Zrotation Yrotation Xrotation
              End Site
              {
                OFFSET 0.001909 0.108988 -0.003095
              }
            }
          }
        }
        JOINT lclavicle
        {
          OFFSET 0.002175 0.121761 0.016192
          CHANNELS 3 Zrotation Yrotation Xrotation
          JOINT lhumerus
          {
            OFFSET 0.186776 0.079223 0.011377
            CHANNELS 3 Zrotation Yrotation Xrotation
            JOINT lradius
            {
              OFFSET 0.306663 -0.000000 0.000000
              CHANNELS 3 Zrotation Yrotation Xrotation
              JOINT lwrist
              {
                OFFSET 0.178328 -0.000000 0.000000
                CHANNELS 3 Zrotation Yrotation Xrotation
                End Site
                {
                  OFFSET 0.089164 -0.000000 0.000000
                }
              }
            }
          }
        }
        JOINT rclavicle
        {
          OFFSET 0.002175 0.121761 0.016192
          CHANNELS 3 Zrotation Yrotation Xrotation
          JOINT rhumerus
          {
            OFFSET -0.176641 0.090332 -0.000262
            CHANNELS 3 Zrotation Yrotation Xrotation
            JOINT rradius
            {
              OFFSET -0.301523 -0.000000 0.000000
              CHANNELS 3 Zrotation Yrotation Xrotation
              JOINT rwrist
              {
                OFFSET -0.180256 -0.000000 0.000000
                CHANNELS 3 Zrotation Yrotation Xrotation
                End Site
                {
                  OFFSET -0.090128 -0.000000 0.000000
                }
              }
            }
          }
        }
      }
    }
  }
}
MOTION
Frames: 17
Frame Time: 0.04166667
0.00000 0.73960 0.00000 -17.76460 -28.75300 20.04290 0.00000 -0.00000 0.00000 5.62165 17.59092 -82.85155 20.46758 19.99476 91.36723 0.51651 9.28577 -19.98286 0.04126 -1.31104 -3.60505 0.00000 -0.00000 0.00000 8.75061 -9.15026 12.33783 -1.34504 -7.34256 20.73428 0.75702 -22.19928 -25.52096 -3.02386 10.73358 -31.38654 3.23135 2.48189 12.10970 5.00894 4.23608 -2.11925 2.71321 2.01513 -9.25827 0.05033 5.04177 -3.51371 1.47935 6.71598 -0.92017 0.51806 3.36707 0.24022 -0.00000 0.00000 0.00000 -60.73774 -38.86241 27.90420 15.87323 -25.34846 -3.59152 0.00000 0.00000 35.19090 -0.00000 0.00000 0.00000 70.22556 -4.82617 45.57016 -58.05088 55.76778 -32.72439 -0.00000 0.00000 -46.78630
0.00000 0.74808 0.00000 -14.95480 -27.13620 20.88080 0.00000 -0.00000 0.00000 0.85488 15.84447 -83.82605 20.42741 19.99562 91.24975 0.19208 13.35624 -21.11831 0.02188 0.95508 2.62523 0.00000 -0.00000 0.00000 8.58387 -5.82604 14.08869 -1.07697 -6.59652 18.52539 1.95070 -26.30941 -22.40363 -2.77605 10.32337 -30.03038 0.34886 3.30993 11.14230 4.04058 4.83066 -2.53258 3.20591 2.44428 -9.31366 -0.67070 3.69435 -3.61259 2.19245 4.96655 -2.13431 0.81881 2.49232 -0.13314 0.00000 0.00000 0.00000 -62.74513 -41.59850 29.04693 15.89276 -25.37503 -3.59988 0.00000 0.00000 32.53300 0.00000 0.00000 0.00000 72.74672 4.70010 42.86258 -45.70053 51.10709 -22.78269 -0.00000 0.00000 -46.21860
0.00000 0.75882 0.00000 -13.02980 -23.20940 20.92110 0.00000 -0.00000 0.00000 -2.18077 12.23357 -82.70523 20.09674 19.99978 90.28286 0.17534 14.30485 -22.15109 0.00991 0.64296 1.76687 0.00000 -0.00000 0.00000 9.85198 -3.85345 14.47449 -1.43553 -7.57530 21.43135 3.09159 -29.83321 -18.21964 -2.07931 9.02936 -25.88722 -0.29967 3.46173 10.64820 3.64469 4.90446 -2.59673 3.15354 2.50735 -9.11798 -1.38633 2.20030 -3.56725 2.71259 3.01920 -2.98595 1.07898 1.51960 -0.38910 0.00000 -0.00000 0.00000 -68.46825 -44.55573 31.61649 15.67263 -25.07476 -3.50607 0.00000 0.00000 26.81850 0.00000 -0.00000 0.00000 74.97343 13.65253 40.89679 -40.81438 48.54505 -19.04736 -0.00000 0.00000 -45.33710
0.00000 0.77276 0.00000 -10.67770 -19.01090 20.04270 0.00000 -0.00000 0.00000 -5.47834 8.35091 -79.32756 19.33873 19.98951 88.06626 0.37436 14.00821 -23.66000 0.00811 -0.58160 -1.59819 0.00000 -0.00000 0.00000 10.23206 -3.32166 8.42411 -3.59702 -11.60392 34.34482 3.51371 -31.12192 -9.45918 -0.62143 5.04474 -14.03622 -0.57662 3.25970 11.27310 3.14504 4.55704 -2.51488 2.81098 2.33557 -9.34472 -2.23486 0.96232 -3.64142 3.40428 1.42052 -3.65575 1.43361 0.72521 -0.56052 -0.00000 -0.00000 0.00000 -76.24505 -47.01087 36.82740 15.54325 -24.89743 -3.45142 0.00000 0.00000 26.05840 -0.00000 -0.00000 0.00000 77.95433 22.65145 43.27146 -43.87735 50.20649 -21.37262 -0.00000 0.00000 -46.54570
0.00000 0.78456 0.00000 -7.14021 -16.28720 18.76250 0.00000 -0.00000 0.00000 -9.92954 5.40266 -74.88942 18.45822 19.94291 85.48802 0.61710 13.64716 -25.33734 0.08095 -1.83523 -5.05053 0.00000 -0.00000 0.00000 9.58252 -1.48064 -4.08983 -9.51407 -17.12738 57.85153 0.85224 -17.54737 1.00189 -0.63492 5.09818 -14.18879 -2.51368 3.06413 12.02930 2.11530 3.90261 -2.25377 2.89869 2.08897 -9.51512 -2.78185 0.12791 -3.56396 3.96652 0.35206 -4.43426 1.70615 0.19148 -0.78726 0.00000 -0.00000 0.00000 -84.10803 -49.85981 45.17359 14.98110 -24.11977 -3.21821 0.00000 0.00000 24.84230 0.00000 -0.00000 0.00000 81.29613 33.60828 55.19097 -55.17688 54.88137 -30.36062 -0.00000 0.00000 -48.34790
0.00000 0.78978 0.00000 -3.24570 -14.00430 16.05710 0.00000 -0.00000 0.00000 -14.19314 2.98682 -68.70671 17.82093 19.88577 83.61717 0.84807 13.72829 -27.22394 0.25653 -3.25870 -8.99983 0.00000 -0.00000 0.00000 10.04499 0.07129 -19.01455 -17.84808 -19.88861 83.69697 0.06106 -4.52753 -2.87721 -1.37423 7.41857 -20.96149 -5.09324 2.84195 13.78680 0.89166 3.00201 -1.64544 3.17580 1.74591 -9.87155 -3.00420 -0.47865 -3.06547 4.47263 -0.44503 -4.59219 1.90923 -0.21308 -0.89228 0.00000 -0.00000 0.00000 -93.76686 -52.77904 56.27872 13.50806 -22.02709 -2.64079 0.00000 0.00000 26.39130 0.00000 -0.00000 0.00000 86.69639 47.71056 74.80709 -74.34057 59.05285 -46.48167 -0.00000 0.00000 -46.85100
0.00000 0.79143 0.00000 1.24718 -11.79610 11.96990 0.00000 -0.00000 0.00000 -19.16680 1.08721 -60.20367 17.22527 19.81440 81.86308 1.05775 14.88225 -29.83616 0.43476 -4.23117 -11.72795 0.00000 -0.00000 0.00000 11.53823 0.51852 -35.05468 -24.19361 -19.57303 102.34566 -0.15654 -5.67503 -11.63546 -0.97974 6.30080 -17.65973 -7.86169 2.94289 16.88800 -0.52922 2.24428 -1.00274 3.28892 1.49266 -10.93630 -3.25005 -1.02981 -3.20190 4.61027 -1.18695 -3.96650 1.98935 -0.57653 -0.64168 -0.00000 0.00000 0.00000 -103.83345 -53.50251 73.72257 12.69833 -20.84361 -2.34486 0.00000 0.00000 24.87950 -0.00000 0.00000 0.00000 100.66937 61.64882 100.20514 -96.61231 59.83414 -65.72324 -0.00000 0.00000 -39.52120
0.00000 0.78800 0.00000 3.31932 -8.39909 9.08263 0.00000 -0.00000 0.00000 -21.62911 0.18054 -52.45867 17.07935 19.79424 81.43241 1.48926 15.72669 -33.32408 0.61883 -5.03439 -14.00667 0.00000 -0.00000 0.00000 16.11259 5.10408 -51.17052 -26.09902 -19.08373 108.09815 -0.41143 -8.03321 -17.62395 -0.48948 4.48598 -12.44806 -7.71117 2.87395 19.16320 -1.20129 1.89354 -0.79003 2.49498 1.31136 -11.92760 -3.64952 -1.74996 -3.72857 4.53803 -2.13809 -3.48569 2.02074 -1.03889 -0.35934 0.00000 -0.00000 0.00000 -110.17861 -51.32270 91.96125 14.87288 -23.96873 -3.17412 0.00000 0.00000 24.99750 0.00000 -0.00000 0.00000 123.37963 70.15400 130.70862 -121.43781 55.91447 -86.85250 -0.00000 0.00000 -27.57520
0.00000 0.78684 0.00000 4.86933 -2.96774 6.81477 0.00000 -0.00000 0.00000 -23.22744 1.03375 -44.12054 16.57214 19.71592 79.93186 2.46617 14.16993 -37.37298 0.67229 -5.24318 -14.60347 0.00000 -0.00000 0.00000 15.22273 11.09578 -63.46342 -23.79264 -19.65158 101.15109 -0.81783 -3.79460 -18.86658 -0.53385 4.68181 -13.00321 -7.69324 2.76216 20.00660 -1.35301 1.63531 -1.10430 2.35948 1.21433 -12.74280 -4.90653 -3.12181 -3.60073 5.17159 -3.96977 -1.88033 2.41735 -1.94165 0.24326 -0.00000 0.00000 0.00000 -109.71995 -44.29820 100.97080 24.15007 -35.32255 -7.79315 0.00000 0.00000 28.31770 -0.00000 0.00000 0.00000 129.53032 72.51919 138.30590 -137.87248 49.28106 -99.96287 -0.00000 0.00000 -21.30320
0.00000 0.79429 0.00000 5.61581 5.58374 4.61159 0.00000 -0.00000 0.00000 -22.78219 2.08953 -34.02880 15.16628 19.43034 75.73706 3.26760 11.94956 -39.80481 0.66195 -5.20349 -14.48985 0.00000 -0.00000 0.00000 9.30563 11.64702 -68.62458 -18.27843 -19.92879 84.96072 -0.60144 -0.19909 -14.72772 -0.18568 2.77531 -7.65380 -8.29771 2.19760 19.08910 -0.75884 0.90458 -1.35570 3.60782 0.94561 -12.45090 -6.77858 -4.73245 -3.35406 5.36817 -6.17305 2.11120 2.74370 -3.05307 1.67508 0.00000 -0.00000 0.00000 -101.05123 -28.19035 94.96818 51.73031 -53.66996 -27.56213 0.00000 0.00000 25.61540 0.00000 -0.00000 0.00000 93.52092 66.04499 97.24032 -145.00135 44.81117 -105.18759 -0.00000 0.00000 -37.72940
0.00000 0.80402 0.00000 5.85955 16.24310 2.35342 0.00000 -0.00000 0.00000 -20.41339 0.64348 -22.93393 13.22306 18.86122 69.81689 3.24879 12.30158 -39.93161 0.93684 -6.16521 -17.26453 0.00000 -0.00000 0.00000 0.45709 8.69651 -64.74901 -11.06628 -17.96737 62.99665 -0.01583 -0.94914 2.23631 -0.01560 -0.80637 2.21619 -9.29017 1.68680 18.25010 -0.54178 0.15774 -0.81145 4.64155 0.60798 -11.25530 -9.35234 -6.91930 -4.38310 6.90840 -9.06258 5.20906 3.18319 -4.47373 3.00205 -0.00000 0.00000 0.00000 -90.11615 -4.68431 84.55794 94.36964 -59.92773 -63.78330 0.00000 -0.00000 -8.57309 -0.00000 0.00000 0.00000 66.93516 43.92925 56.71413 -134.36956 51.07362 -97.27184 -0.00000 0.00000 -41.14410
0.00000 0.81236 0.00000 5.91990 26.56760 1.02085 0.00000 -0.00000 0.00000 -17.26271 -1.89352 -13.60819 11.19932 18.03125 63.42717 2.76946 13.96771 -38.73421 1.25546 -7.10332 -20.02182 0.00000 -0.00000 0.00000 -9.08103 7.11685 -54.01260 -5.13490 -13.53412 41.40229 -1.52810 -1.62628 22.91021 -0.11517 -2.18801 6.02554 -11.25680 1.71052 16.55730 0.10290 0.12597 0.11915 6.48217 0.58457 -9.25468 -13.73160 -9.03334 -2.91476 7.33225 -11.81120 4.94429 3.84612 -5.93079 3.19095 0.00000 -0.00000 0.00000 -79.76280 17.29372 67.46786 110.88106 -58.28664 -77.97950 0.00000 -0.00000 -45.76170 0.00000 -0.00000 0.00000 58.01223 26.07770 33.27483 -69.69956 58.38410 -42.51469 -0.00000 0.00000 -13.27370
0.00000 0.80661 0.00000 5.14724 32.43080 -0.52655 0.00000 -0.00000 0.00000 -13.44888 -1.67460 -7.33425 10.16856 17.50355 60.05025 2.13700 17.38897 -38.24578 1.17026 -6.86677 -19.32126 0.00000 -0.00000 0.00000 -10.60126 4.80237 -46.69852 -3.87903 -11.99766 35.72371 -1.95247 -5.90011 25.20980 -0.09338 -1.97082 5.42503 -12.45390 2.04191 14.78030 0.05911 0.63040 0.60332 6.99168 0.77244 -7.83024 -13.73350 -10.36110 -3.01668 6.64611 -13.66650 9.36010 3.37866 -6.92358 4.70414 -0.00000 0.00000 0.00000 -73.39817 31.35970 60.53905 114.03640 -57.70026 -80.65542 0.00000 -0.00000 -36.80380 -0.00000 0.00000 0.00000 52.96557 30.54431 22.25409 -17.02069 26.88504 -4.09669 -0.00000 -0.00000 28.67730
0.00000 0.79195 0.00000 5.77324 33.59860 -1.39222 0.00000 -0.00000 0.00000 -11.93753 1.26240 -3.12468 9.85066 17.32502 58.98807 1.45543 21.69731 -38.87344 0.43383 -4.22672 -11.71538 0.00000 -0.00000 0.00000 -7.52860 -0.40012 -48.14120 -5.70362 -14.13485 43.78034 -0.43130 2.27547 13.44593 -0.01646 0.82826 -2.27639 -13.52210 3.14291 15.90340 -0.34621 1.68264 0.44848 6.88457 1.38366 -8.88761 -13.49240 -11.39220 -0.23404 9.68305 -15.47990 4.22321 4.38265 -7.74944 3.09294 0.00000 0.00000 0.00000 -74.42110 39.80925 59.36422 121.54438 -55.88416 -86.94075 0.00000 -0.00000 -28.25130 0.00000 0.00000 0.00000 51.38448 26.28494 26.58860 -17.72330 27.80141 -4.41942 -0.00000 -0.00000 12.71420
0.00000 0.78118 0.00000 7.41711 31.92890 -0.50478 0.00000 -0.00000 0.00000 -11.92676 4.10702 0.46661 9.01910 16.81999 56.15615 1.25100 23.25649 -39.50664 0.10524 -2.09183 -5.75950 0.00000 -0.00000 0.00000 -7.25890 -2.30804 -53.56731 -8.18846 -16.25613 53.23869 0.04408 7.46262 9.59726 -0.01110 0.68039 -1.86977 -14.14950 4.09264 15.61820 -0.83025 2.77159 -0.18280 6.40387 1.99409 -9.69581 -13.02540 -11.74290 0.69154 8.63942 -16.01120 4.41120 4.02291 -8.04945 2.93748 0.00000 -0.00000 0.00000 -77.33943 39.37328 54.90903 118.42788 -56.71451 -84.34772 0.00000 -0.00000 -36.58300 0.00000 -0.00000 0.00000 52.91421 27.24067 24.35080 -17.57206 27.60574 -4.34911 -0.00000 -0.00000 19.53830
0.00000 0.78174 0.00000 7.33798 32.37900 0.79501 0.00000 -0.00000 0.00000 -10.03767 4.18742 4.09480 7.38866 15.65063 50.32939 0.67237 23.64424 -37.06358 0.23975 -3.15111 -8.69973 0.00000 -0.00000 0.00000 -5.27953 -5.66462 -56.88448 -9.82513 -17.31034 58.90228 0.34879 10.64463 6.34108 -0.00335 -0.37353 1.02635 -13.71140 4.16390 13.72390 -0.82402 3.20949 -0.80960 6.10928 2.19572 -9.39264 -13.31000 -12.07720 0.74935 9.34847 -16.60450 6.09795 4.17121 -8.34215 3.58521 0.00000 -0.00000 0.00000 -74.85899 36.07160 57.66517 113.99086 -57.70942 -80.61692 0.00000 -0.00000 -39.62530 0.00000 -0.00000 0.00000 53.09057 26.75431 24.09722 -17.81164 27.91530 -4.46070 -0.00000 -0.00000 19.56970
0.00000 0.78553 0.00000 6.85489 33.87580 3.01101 0.00000 -0.00000 0.00000 -7.99131 3.22707 5.40754 6.05677 14.48313 45.20913 0.21110 23.27628 -34.05850 0.52611 -4.64828 -12.90805 0.00000 -0.00000 0.00000 -3.66111 -7.61397 -59.48227 -10.84732 -17.85956 62.28476 0.40823 11.26459 3.33525 -0.00396 -0.40658 1.11717 -12.91390 3.27945 11.62340 -0.73919 2.44759 -1.52104 5.99317 1.79628 -8.77276 -13.51780 -12.26800 1.02116 9.40684 -16.85690 5.35602 4.23449 -8.47512 3.36813 -0.00000 -0.00000 0.00000 -73.97453 35.45755 58.44714 111.35765 -58.20426 -78.38475 0.00000 -0.00000 -37.71400 -0.00000 -0.00000 0.00000 53.03970 27.21481 24.45758 -17.19300 27.11150 -4.17491 -0.00000 -0.00000 20.25100
